<svg width="150" height="37" viewBox="0 0 150 37" fill="none" xmlns="http://www.w3.org/2000/svg">
<path d="M61.4537 36.4417C60.593 36.4445 59.7403 36.2763 58.9445 35.9467C58.1486 35.6171 57.4254 35.1326 56.8164 34.5211C56.2077 33.9139 55.7246 33.1915 55.3949 32.3956C55.0652 31.5997 54.8955 30.7461 54.8955 29.8839C54.8955 29.0217 55.0652 28.1681 55.3949 27.3722C55.7246 26.5763 56.2077 25.854 56.8164 25.2467C58.0495 24.0163 59.7163 23.3258 61.4536 23.3258C63.1908 23.3258 64.8576 24.0163 66.0908 25.2467C66.6994 25.854 67.1825 26.5764 67.5121 27.3722C67.8418 28.1681 68.0115 29.0218 68.0115 29.8839C68.0115 30.7461 67.8418 31.5997 67.5121 32.3956C67.1825 33.1915 66.6994 33.9138 66.0908 34.5211C65.4817 35.1326 64.7586 35.617 63.9628 35.9466C63.167 36.2762 62.3143 36.4445 61.4537 36.4417ZM63.8614 28.4876V32.693H65.1112V28.4876H63.8614ZM59.4254 31.3668H61.6595L62.0063 32.3971C62.0423 32.4811 62.0993 32.5544 62.1718 32.6097C62.2555 32.6684 62.3561 32.6976 62.458 32.693H63.5146L61.2401 26.7844H59.8448L57.5703 32.693H58.635C58.7371 32.6965 58.8374 32.6647 58.9191 32.6028C58.989 32.5496 59.0436 32.4786 59.0771 32.3971L59.4239 31.3674L59.4254 31.3668ZM64.4738 26.5979C64.3756 26.5972 64.2782 26.6165 64.1876 26.6546C64.0998 26.6919 64.0197 26.7455 63.9516 26.8126C63.8834 26.8799 63.8286 26.9598 63.7903 27.0478C63.7507 27.1385 63.7303 27.2365 63.7306 27.3356C63.7304 27.4327 63.7508 27.5287 63.7903 27.6174C63.8287 27.7041 63.8835 27.7826 63.9516 27.8484C64.0204 27.9146 64.1003 27.9681 64.1876 28.0064C64.2778 28.0462 64.3753 28.0667 64.4738 28.0664C64.5756 28.0666 64.6763 28.0461 64.7701 28.0064C64.8602 27.9688 64.9429 27.9153 65.0142 27.8484C65.0836 27.7828 65.1398 27.7043 65.1797 27.6174C65.2197 27.5289 65.2401 27.4328 65.2394 27.3356C65.2402 27.2365 65.2199 27.1383 65.1797 27.0478C65.0988 26.8685 64.952 26.7275 64.7701 26.6546C64.6761 26.6168 64.5757 26.5976 64.4744 26.5982L64.4738 26.5979ZM61.3489 30.4344H59.7399L60.2803 28.8246C60.3204 28.7225 60.364 28.5996 60.4094 28.4596C60.4548 28.3197 60.499 28.1656 60.5384 28.0012C60.5826 28.1581 60.628 28.3103 60.6755 28.4518C60.723 28.5933 60.7652 28.7132 60.8046 28.815L61.3474 30.4338L61.3489 30.4344Z" fill="#000923"/>
<path d="M73.1106 26.7714V27.6931H71.2802V32.802H70.1482V27.6931H68.3093V26.7714H73.1106Z" fill="#000923"/>
<path d="M72.7584 32.802V28.523H73.3686C73.4752 28.523 73.5495 28.5425 73.5916 28.5814C73.6337 28.6203 73.6617 28.6871 73.6758 28.7816L73.7389 29.2987C73.8932 29.0346 74.0741 28.8261 74.2817 28.6732C74.4893 28.5203 74.7221 28.4438 74.9802 28.4438C75.1934 28.4438 75.3702 28.4925 75.5104 28.5898L75.3758 29.3613C75.3674 29.4114 75.3491 29.4475 75.3211 29.4697C75.293 29.4892 75.2552 29.4989 75.2075 29.4989C75.1654 29.4989 75.1079 29.4892 75.0349 29.4697C74.962 29.4503 74.8652 29.4405 74.7446 29.4405C74.5286 29.4405 74.3434 29.5003 74.1891 29.6199C74.0348 29.7366 73.9044 29.909 73.7978 30.137V32.802H72.7584Z" fill="#000923"/>
<path d="M76.9639 28.523V32.802H75.9245V28.523H76.9639ZM77.1196 27.2761C77.1196 27.365 77.1014 27.4484 77.0649 27.5263C77.0284 27.6041 76.9793 27.6723 76.9176 27.7306C76.8587 27.789 76.7886 27.8363 76.7072 27.8724C76.6259 27.9058 76.5389 27.9225 76.4463 27.9225C76.3566 27.9225 76.271 27.9058 76.1896 27.8724C76.1111 27.8363 76.0424 27.789 75.9834 27.7306C75.9245 27.6723 75.8768 27.6041 75.8404 27.5263C75.8067 27.4484 75.7899 27.365 75.7899 27.2761C75.7899 27.1843 75.8067 27.0981 75.8404 27.0175C75.8768 26.9369 75.9245 26.8674 75.9834 26.809C76.0424 26.7506 76.1111 26.7047 76.1896 26.6713C76.271 26.6352 76.3566 26.6171 76.4463 26.6171C76.5389 26.6171 76.6259 26.6352 76.7072 26.6713C76.7886 26.7047 76.8587 26.7506 76.9176 26.809C76.9793 26.8674 77.0284 26.9369 77.0649 27.0175C77.1014 27.0981 77.1196 27.1843 77.1196 27.2761Z" fill="#000923"/>
<path d="M78.9121 26.6046V32.802H77.8727V26.6046H78.9121Z" fill="#000923"/>
<path d="M80.8602 26.6046V32.802H79.8209V26.6046H80.8602Z" fill="#000923"/>
<path d="M82.8084 28.523V32.802H81.769V28.523H82.8084ZM82.9641 27.2761C82.9641 27.365 82.9459 27.4484 82.9094 27.5263C82.8729 27.6041 82.8238 27.6723 82.7621 27.7306C82.7032 27.789 82.6331 27.8363 82.5517 27.8724C82.4704 27.9058 82.3834 27.9225 82.2908 27.9225C82.201 27.9225 82.1155 27.9058 82.0341 27.8724C81.9556 27.8363 81.8869 27.789 81.8279 27.7306C81.769 27.6723 81.7213 27.6041 81.6849 27.5263C81.6512 27.4484 81.6344 27.365 81.6344 27.2761C81.6344 27.1843 81.6512 27.0981 81.6849 27.0175C81.7213 26.9369 81.769 26.8674 81.8279 26.809C81.8869 26.7506 81.9556 26.7047 82.0341 26.6713C82.1155 26.6352 82.201 26.6171 82.2908 26.6171C82.3834 26.6171 82.4704 26.6352 82.5517 26.6713C82.6331 26.7047 82.7032 26.7506 82.7621 26.809C82.8238 26.8674 82.8729 26.9369 82.9094 27.0175C82.9459 27.0981 82.9641 27.1843 82.9641 27.2761Z" fill="#000923"/>
<path d="M85.493 28.4563C85.8156 28.4563 86.1073 28.5077 86.3682 28.6106C86.6319 28.7135 86.8564 28.8595 87.0415 29.0485C87.2267 29.2376 87.3697 29.4683 87.4707 29.7408C87.5717 30.0133 87.6222 30.3177 87.6222 30.6542C87.6222 30.9934 87.5717 31.2992 87.4707 31.5717C87.3697 31.8441 87.2267 32.0763 87.0415 32.2681C86.8564 32.46 86.6319 32.6073 86.3682 32.7102C86.1073 32.8131 85.8156 32.8645 85.493 32.8645C85.1704 32.8645 84.8772 32.8131 84.6135 32.7102C84.3498 32.6073 84.124 32.46 83.936 32.2681C83.7509 32.0763 83.6064 31.8441 83.5026 31.5717C83.4016 31.2992 83.3511 30.9934 83.3511 30.6542C83.3511 30.3177 83.4016 30.0133 83.5026 29.7408C83.6064 29.4683 83.7509 29.2376 83.936 29.0485C84.124 28.8595 84.3498 28.7135 84.6135 28.6106C84.8772 28.5077 85.1704 28.4563 85.493 28.4563ZM85.493 32.0721C85.852 32.0721 86.1171 31.9526 86.2883 31.7135C86.4622 31.4744 86.5492 31.124 86.5492 30.6625C86.5492 30.201 86.4622 29.8493 86.2883 29.6074C86.1171 29.3655 85.852 29.2445 85.493 29.2445C85.1283 29.2445 84.859 29.3669 84.685 29.6115C84.5111 29.8534 84.4241 30.2037 84.4241 30.6625C84.4241 31.1213 84.5111 31.4716 84.685 31.7135C84.859 31.9526 85.1283 32.0721 85.493 32.0721Z" fill="#000923"/>
<path d="M88.0965 32.802V28.523H88.7319C88.8666 28.523 88.955 28.5856 88.997 28.7107L89.0686 29.0485C89.1555 28.9595 89.2467 28.8789 89.3421 28.8066C89.4403 28.7343 89.5427 28.6718 89.6493 28.619C89.7587 28.5661 89.8751 28.5258 89.9985 28.498C90.122 28.4702 90.2566 28.4563 90.4025 28.4563C90.6381 28.4563 90.8471 28.4966 91.0295 28.5773C91.2118 28.6551 91.3633 28.7663 91.484 28.9109C91.6074 29.0527 91.7 29.2237 91.7617 29.4239C91.8262 29.6213 91.8585 29.8395 91.8585 30.0786V32.802H90.8191V30.0786C90.8191 29.8173 90.7574 29.6157 90.6339 29.4739C90.5133 29.3293 90.331 29.257 90.0869 29.257C89.9074 29.257 89.739 29.2974 89.5819 29.378C89.4248 29.4586 89.2762 29.5684 89.1359 29.7075V32.802H88.0965Z" fill="#000923"/>
<path d="M47.8596 35.5059L49.0531 32.7072L49.0737 33.5509L46.4191 27.6963H48.0757L49.403 30.8345C49.4579 30.9511 49.5093 31.0883 49.5573 31.2461C49.6122 31.397 49.6568 31.5445 49.6911 31.6885L49.4441 31.7914C49.4853 31.6748 49.5333 31.5411 49.5882 31.3902C49.6431 31.2392 49.6979 31.078 49.7528 30.9066L50.8949 27.6963H52.5618L50.2776 33.1393L49.3412 35.5059H47.8596Z" fill="#000923"/>
<path d="M43.9097 33.2422C43.6696 33.2422 43.4364 33.2079 43.21 33.1393C42.9837 33.0707 42.7779 32.9781 42.5927 32.8615C42.4075 32.738 42.2531 32.6009 42.1297 32.4499C42.0062 32.2922 41.9273 32.131 41.893 31.9664L42.2223 31.8429L42.1502 33.1188H40.7715V25.5253H42.2326V28.9722L41.9548 28.859C41.9959 28.6944 42.0748 28.5366 42.1914 28.3857C42.308 28.2279 42.4555 28.0907 42.6338 27.9741C42.8122 27.8506 43.0077 27.7546 43.2203 27.686C43.433 27.6174 43.6525 27.5831 43.8788 27.5831C44.3522 27.5831 44.774 27.7066 45.1444 27.9535C45.5148 28.1936 45.8064 28.5263 46.019 28.9516C46.2385 29.3769 46.3483 29.8639 46.3483 30.4127C46.3483 30.9614 46.2419 31.4485 46.0293 31.8737C45.8167 32.299 45.5251 32.6352 45.1547 32.8821C44.7912 33.1222 44.3762 33.2422 43.9097 33.2422ZM43.5599 31.9972C43.8343 31.9972 44.0709 31.9321 44.2698 31.8017C44.4756 31.6645 44.6368 31.4793 44.7534 31.2461C44.87 31.006 44.9283 30.7282 44.9283 30.4127C44.9283 30.104 44.87 29.8296 44.7534 29.5895C44.6437 29.3494 44.4859 29.1642 44.2801 29.0339C44.0743 28.9036 43.8343 28.8384 43.5599 28.8384C43.2855 28.8384 43.0454 28.9036 42.8396 29.0339C42.6338 29.1642 42.4726 29.3494 42.356 29.5895C42.2394 29.8296 42.1811 30.104 42.1811 30.4127C42.1811 30.7282 42.2394 31.006 42.356 31.2461C42.4726 31.4793 42.6338 31.6645 42.8396 31.8017C43.0454 31.9321 43.2855 31.9972 43.5599 31.9972Z" fill="#000923"/>
<path d="M144.602 20.5525C143.257 20.5525 142.085 20.2789 141.084 19.7317C140.084 19.1846 139.302 18.4342 138.739 17.4805C138.177 16.5269 137.895 15.4326 137.895 14.1975C137.895 13.2439 138.052 12.3684 138.364 11.5711C138.677 10.7738 139.115 10.086 139.677 9.50754C140.24 8.91348 140.905 8.46011 141.671 8.14745C142.452 7.81915 143.297 7.655 144.203 7.655C145.047 7.655 145.829 7.81133 146.548 8.124C147.267 8.42103 147.885 8.85095 148.401 9.41374C148.932 9.96091 149.339 10.6097 149.62 11.3601C149.902 12.1105 150.027 12.9312 149.995 13.8223L149.972 14.8541H140.006L139.466 12.814H147.228L146.853 13.2361V12.7202C146.822 12.2981 146.681 11.9151 146.431 11.5711C146.197 11.2272 145.892 10.9614 145.516 10.7738C145.141 10.5862 144.719 10.4924 144.25 10.4924C143.562 10.4924 142.976 10.6253 142.491 10.8911C142.022 11.1569 141.663 11.5477 141.413 12.0636C141.163 12.5795 141.038 13.2048 141.038 13.9396C141.038 14.69 141.194 15.3388 141.507 15.8859C141.835 16.4331 142.288 16.863 142.867 17.1757C143.461 17.4727 144.156 17.6212 144.954 17.6212C145.501 17.6212 146.001 17.5353 146.454 17.3633C146.908 17.1913 147.392 16.8943 147.908 16.4722L149.503 18.6999C149.05 19.1064 148.549 19.4503 148.002 19.7317C147.455 19.9975 146.892 20.2007 146.314 20.3414C145.735 20.4821 145.165 20.5525 144.602 20.5525Z" fill="#000923"/>
<path d="M129.17 25.7115C128.185 25.7115 127.216 25.563 126.262 25.2659C125.308 24.9845 124.535 24.6171 123.94 24.1638L125.113 21.7719C125.426 21.9907 125.785 22.1862 126.192 22.3581C126.598 22.5301 127.02 22.663 127.458 22.7568C127.911 22.8506 128.373 22.8975 128.842 22.8975C129.654 22.8975 130.319 22.7724 130.835 22.5223C131.366 22.2721 131.765 21.8969 132.031 21.3967C132.296 20.912 132.429 20.2867 132.429 19.5207V17.3633L132.992 17.4805C132.898 17.9964 132.64 18.4732 132.218 18.911C131.796 19.3331 131.265 19.677 130.624 19.9428C129.983 20.1929 129.326 20.318 128.654 20.318C127.497 20.318 126.473 20.0522 125.582 19.5207C124.691 18.9891 123.987 18.2544 123.471 17.3164C122.956 16.3784 122.698 15.2997 122.698 14.0803C122.698 12.8296 122.948 11.7275 123.448 10.7738C123.964 9.80458 124.66 9.04636 125.535 8.4992C126.426 7.9364 127.435 7.655 128.56 7.655C129.029 7.655 129.475 7.70971 129.897 7.81915C130.335 7.92858 130.733 8.08491 131.093 8.28815C131.468 8.47575 131.796 8.69461 132.078 8.94475C132.375 9.17925 132.617 9.43719 132.805 9.71859C132.992 9.99999 133.109 10.2814 133.156 10.5628L132.476 10.7504L132.57 7.91295H135.759V19.38C135.759 20.3961 135.611 21.2951 135.314 22.0767C135.017 22.8584 134.579 23.515 134.001 24.0465C133.438 24.5937 132.742 25.008 131.913 25.2894C131.101 25.5708 130.186 25.7115 129.17 25.7115ZM129.264 17.6447C129.92 17.6447 130.491 17.4962 130.975 17.1991C131.476 16.9021 131.859 16.4878 132.125 15.9563C132.39 15.4248 132.523 14.7994 132.523 14.0803C132.523 13.3768 132.39 12.7593 132.125 12.2277C131.859 11.6806 131.476 11.2585 130.975 10.9614C130.491 10.6644 129.92 10.5159 129.264 10.5159C128.623 10.5159 128.052 10.6722 127.552 10.9849C127.067 11.2819 126.692 11.6962 126.426 12.2277C126.16 12.7593 126.028 13.3768 126.028 14.0803C126.028 14.7838 126.16 15.4091 126.426 15.9563C126.692 16.4878 127.067 16.9021 127.552 17.1991C128.052 17.4962 128.623 17.6447 129.264 17.6447Z" fill="#000923"/>
<path d="M113.239 20.5525C112.207 20.5525 111.277 20.2711 110.448 19.7083C109.62 19.1455 108.963 18.3794 108.478 17.4102C107.994 16.4409 107.751 15.331 107.751 14.0803C107.751 12.8296 107.994 11.7275 108.478 10.7738C108.979 9.80458 109.651 9.04636 110.495 8.4992C111.339 7.9364 112.301 7.655 113.379 7.655C113.989 7.655 114.544 7.7488 115.044 7.9364C115.56 8.10836 116.006 8.35068 116.381 8.66335C116.772 8.97601 117.1 9.33558 117.366 9.74204C117.632 10.1485 117.819 10.5862 117.929 11.0552L117.225 10.938V7.91295H120.532V20.318H117.178V17.3398L117.929 17.2695C117.804 17.7072 117.6 18.1215 117.319 18.5123C117.038 18.9032 116.686 19.2549 116.264 19.5676C115.857 19.8646 115.396 20.1069 114.88 20.2945C114.364 20.4665 113.817 20.5525 113.239 20.5525ZM114.153 17.6681C114.779 17.6681 115.326 17.5196 115.795 17.2226C116.264 16.9256 116.623 16.5113 116.873 15.9797C117.139 15.4326 117.272 14.7994 117.272 14.0803C117.272 13.3768 117.139 12.7593 116.873 12.2277C116.623 11.6962 116.264 11.2819 115.795 10.9849C115.326 10.6722 114.779 10.5159 114.153 10.5159C113.544 10.5159 113.004 10.6722 112.535 10.9849C112.082 11.2819 111.722 11.6962 111.456 12.2277C111.191 12.7593 111.058 13.3768 111.058 14.0803C111.058 14.7994 111.191 15.4326 111.456 15.9797C111.722 16.5113 112.082 16.9256 112.535 17.2226C113.004 17.5196 113.544 17.6681 114.153 17.6681Z" fill="#000923"/>
<path d="M99.0494 25.7115C98.0645 25.7115 97.0953 25.563 96.1417 25.2659C95.188 24.9845 94.4142 24.6171 93.8201 24.1638L94.9926 21.7719C95.3053 21.9907 95.6648 22.1862 96.0713 22.3581C96.4778 22.5301 96.8999 22.663 97.3376 22.7568C97.791 22.8506 98.2521 22.8975 98.7211 22.8975C99.5341 22.8975 100.198 22.7724 100.714 22.5223C101.246 22.2721 101.645 21.8969 101.91 21.3967C102.176 20.912 102.309 20.2867 102.309 19.5207V17.3633L102.872 17.4805C102.778 17.9964 102.52 18.4732 102.098 18.911C101.676 19.3331 101.144 19.677 100.503 19.9428C99.8624 20.1929 99.2058 20.318 98.5336 20.318C97.3767 20.318 96.3527 20.0522 95.4616 19.5207C94.5705 18.9891 93.867 18.2544 93.3511 17.3164C92.8352 16.3784 92.5773 15.2997 92.5773 14.0803C92.5773 12.8296 92.8274 11.7275 93.3277 10.7738C93.8436 9.80458 94.5392 9.04636 95.4147 8.4992C96.3058 7.9364 97.3142 7.655 98.4398 7.655C98.9087 7.655 99.3543 7.70971 99.7764 7.81915C100.214 7.92858 100.613 8.08491 100.972 8.28815C101.348 8.47575 101.676 8.69461 101.957 8.94475C102.254 9.17925 102.497 9.43719 102.684 9.71859C102.872 9.99999 102.989 10.2814 103.036 10.5628L102.356 10.7504L102.45 7.91295H105.639V19.38C105.639 20.3961 105.49 21.2951 105.193 22.0767C104.896 22.8584 104.459 23.515 103.88 24.0465C103.317 24.5937 102.622 25.008 101.793 25.2894C100.98 25.5708 100.066 25.7115 99.0494 25.7115ZM99.1432 17.6447C99.7999 17.6447 100.37 17.4962 100.855 17.1991C101.355 16.9021 101.738 16.4878 102.004 15.9563C102.27 15.4248 102.403 14.7994 102.403 14.0803C102.403 13.3768 102.27 12.7593 102.004 12.2277C101.738 11.6806 101.355 11.2585 100.855 10.9614C100.37 10.6644 99.7999 10.5159 99.1432 10.5159C98.5023 10.5159 97.9317 10.6722 97.4314 10.9849C96.9468 11.2819 96.5716 11.6962 96.3058 12.2277C96.04 12.7593 95.9072 13.3768 95.9072 14.0803C95.9072 14.7838 96.04 15.4091 96.3058 15.9563C96.5716 16.4878 96.9468 16.9021 97.4314 17.1991C97.9317 17.4962 98.5023 17.6447 99.1432 17.6447Z" fill="#000923"/>
<path d="M79.1622 20.318V7.91295H82.3514L82.4452 10.4455L81.7886 10.7269C81.9606 10.1641 82.2654 9.65606 82.7032 9.20269C83.1565 8.7337 83.6959 8.3585 84.3212 8.0771C84.9466 7.7957 85.6031 7.655 86.291 7.655C87.229 7.655 88.0107 7.8426 88.636 8.2178C89.277 8.593 89.7538 9.16361 90.0665 9.92964C90.3948 10.68 90.5589 11.6102 90.5589 12.7202V20.318H87.229V12.9781C87.229 12.4153 87.1508 11.9463 86.9945 11.5711C86.8382 11.1959 86.5959 10.9224 86.2676 10.7504C85.9549 10.5628 85.5641 10.4846 85.0951 10.5159C84.7199 10.5159 84.3681 10.5784 84.0398 10.7035C83.7272 10.8129 83.4536 10.9771 83.2191 11.1959C83.0002 11.4148 82.8204 11.6649 82.6797 11.9463C82.5547 12.2277 82.4921 12.5326 82.4921 12.8609V20.318H80.8506C80.4911 20.318 80.1706 20.318 79.8892 20.318C79.6078 20.318 79.3655 20.318 79.1622 20.318Z" fill="#000923"/>
<path d="M65.0977 20.318V3.903H76.1896V6.9984H68.5214V17.2226H76.3537V20.318H65.0977ZM66.7392 13.4471V10.4455H75.064V13.4471H66.7392Z" fill="#000923"/>
<path d="M58.0941 20.318V7.91295H61.424V20.318H58.0941ZM59.7356 5.3569C59.0946 5.3569 58.5944 5.20057 58.2348 4.8879C57.8752 4.57523 57.6954 4.12969 57.6954 3.55125C57.6954 3.01972 57.8752 2.58981 58.2348 2.26151C58.61 1.91757 59.1103 1.74561 59.7356 1.74561C60.3765 1.74561 60.8768 1.90976 61.2364 2.23806C61.5959 2.55072 61.7757 2.98845 61.7757 3.55125C61.7757 4.09842 61.5881 4.53615 61.2129 4.86445C60.8534 5.19275 60.3609 5.3569 59.7356 5.3569Z" fill="#000923"/>
<path d="M40.3591 20.318L46.7844 3.903H49.9267L56.3286 20.318H52.7173L49.4108 11.4773C49.317 11.2272 49.1998 10.9067 49.0591 10.5159C48.934 10.1251 48.8011 9.71078 48.6604 9.27305C48.5197 8.83531 48.3868 8.42103 48.2618 8.0302C48.1367 7.62373 48.0429 7.28762 47.9804 7.02185L48.6135 6.9984C48.5197 7.35796 48.4103 7.73316 48.2852 8.124C48.1758 8.4992 48.0585 8.89003 47.9335 9.29649C47.8084 9.68733 47.6755 10.0703 47.5348 10.4455C47.3941 10.8207 47.2612 11.1881 47.1362 11.5477L43.8297 20.318H40.3591ZM43.3373 16.8708L44.4863 14.0334H52.0138L53.1863 16.8708H43.3373Z" fill="#000923"/>
<path d="M16.8616 28.122C16.7018 28.0642 16.4843 27.8739 16.4299 27.7413C16.3891 27.6495 16.3823 27.1805 16.3823 25.1208C16.3823 23.5199 16.3959 22.5683 16.4163 22.4867C16.4741 22.2862 16.6576 22.0448 16.8378 21.9327L17.0043 21.8307L18.2381 21.8205C19.4073 21.8103 19.4787 21.8137 19.601 21.8783C19.7744 21.9667 19.9307 22.1366 20.0157 22.3236C20.0837 22.4731 20.0871 22.5343 20.0871 25.0494C20.0871 26.6027 20.0735 27.6563 20.0531 27.7073C20.0055 27.8365 19.7778 28.071 19.6554 28.1254C19.5059 28.1866 17.0349 28.1866 16.8616 28.122Z" fill="white"/>
<path d="M21.4094 27.816C21.1986 27.6936 21.2088 27.9519 21.2088 23.2513C21.2088 20.4473 21.2224 18.9314 21.2428 18.8498C21.304 18.6289 21.4807 18.408 21.6813 18.306L21.8614 18.2108H23.102C24.5023 18.2108 24.4819 18.2074 24.7232 18.4895C24.9577 18.7614 24.9475 18.5541 24.9475 22.8163C24.9475 27.1158 24.9611 26.8643 24.7028 27.1634C24.5465 27.3469 24.4105 27.4149 23.9483 27.544C23.2141 27.7514 22.7179 27.8329 22.0925 27.8499C21.6031 27.8635 21.4807 27.8567 21.4094 27.816Z" fill="white"/>
<path d="M26.2732 26.4055C26.2495 26.3613 26.2393 24.6823 26.2393 21.2121C26.2393 16.1274 26.2427 16.0866 26.3106 15.9337C26.3956 15.7433 26.4908 15.6413 26.6641 15.5496C26.7967 15.4782 26.8477 15.4748 28.0406 15.4646C28.8904 15.4578 29.322 15.4646 29.4104 15.4918C29.5735 15.5394 29.7911 15.7331 29.8862 15.9133L29.961 16.0526L29.9712 19.3291C29.978 22.524 29.978 22.6158 29.91 22.8809C29.7231 23.632 29.1453 24.4953 28.2684 25.3349C27.8265 25.7563 27.4934 26.0078 26.9972 26.2797C26.7083 26.4395 26.6267 26.4701 26.4806 26.4701C26.348 26.4701 26.3004 26.4565 26.2732 26.4055Z" fill="white"/>
<path d="M11.2673 23.0882C10.319 22.8808 9.65962 22.1569 9.59504 21.2426L9.57465 20.9639L9.24836 20.7633C9.06822 20.6546 8.34426 20.2127 7.6373 19.7811L6.35254 18.9925H3.56549C1.44461 18.9925 0.764839 19.0027 0.713856 19.0333C0.679868 19.0571 0.639082 19.0673 0.628885 19.0571C0.577903 19.0061 0.346781 18.0681 0.258411 17.5548L0.234619 17.4291L3.5247 17.4359L6.81478 17.4461L7.20565 17.6874C7.41978 17.8199 7.90921 18.119 8.29668 18.3536C8.68075 18.5881 9.25176 18.9382 9.57125 19.1353C9.88734 19.329 10.1626 19.499 10.183 19.5126C10.2034 19.5262 10.2884 19.482 10.37 19.4174C10.5705 19.2645 10.8832 19.1115 11.1381 19.0469C11.41 18.9756 12.083 18.9756 12.3549 19.0435C12.9939 19.2067 13.5921 19.7369 13.7994 20.3249C13.8946 20.5934 13.932 21.2494 13.8674 21.5383C13.762 22.0209 13.378 22.5783 12.9701 22.8366C12.6336 23.0508 12.3039 23.1391 11.8519 23.1357C11.6411 23.1357 11.3794 23.1153 11.2673 23.0882ZM12.1136 21.7184C12.3685 21.5791 12.5418 21.3038 12.5418 21.042C12.5384 20.7837 12.3345 20.4914 12.0524 20.3453C11.6683 20.1482 11.0497 20.4914 10.9648 20.9503C10.9206 21.1746 11.1041 21.5349 11.3386 21.681C11.6411 21.868 11.8213 21.8748 12.1136 21.7184Z" fill="white"/>
<path d="M16.6679 18.5168C16.0154 18.3469 15.4681 17.9084 15.1724 17.3204L15.0569 17.0893H11.9367H8.82L8.61267 16.9907C8.50051 16.9364 8.2558 16.8038 8.06886 16.6916C7.88532 16.5795 7.62021 16.4299 7.48426 16.362L7.23954 16.2396L3.65716 16.2464L0.0747746 16.2566L0.0543815 15.9677C0.0407861 15.8079 0.0237919 15.4545 0.0169942 15.1826L0 14.6863L0.822521 14.6659C1.27457 14.6523 2.62391 14.6421 3.8203 14.6387H5.99896L7.78676 12.9325C8.76902 11.9944 9.61533 11.2059 9.66632 11.1821C9.73769 11.1515 11.053 11.1413 15.7197 11.1413H21.6812L21.8206 10.8762C22.0857 10.3664 22.5513 9.96873 23.0748 9.80219C23.435 9.68663 24.0808 9.65264 24.4241 9.72401C25.0801 9.86337 25.6205 10.2848 25.9298 10.8932C26.0895 11.2161 26.1371 11.4404 26.1371 11.9061C26.1337 12.3989 26.1065 12.5349 25.9298 12.9053C25.6715 13.439 25.1141 13.8944 24.5397 14.0473C24.4275 14.0779 24.193 14.0983 23.9585 14.0983C23.486 14.0983 23.1495 14.0236 22.7723 13.8366C22.446 13.6735 21.9871 13.2282 21.824 12.9189L21.7152 12.7048H16.0324L10.3495 12.7082L9.27885 13.755L8.21161 14.8019L8.26939 14.8903C8.33057 14.9888 8.77582 15.2913 9.10551 15.4613L9.32643 15.5768L12.1305 15.587C13.6736 15.5904 14.9719 15.587 15.0127 15.5768C15.0603 15.5666 15.1113 15.5021 15.1589 15.4035C15.3492 14.965 15.7604 14.5538 16.2295 14.3294C16.5694 14.1663 16.8855 14.0983 17.3001 14.0983C17.7046 14.0983 18.0275 14.1663 18.3368 14.3159C19.1729 14.7135 19.6113 15.4205 19.6113 16.3722C19.6113 17.0281 19.4414 17.453 18.9826 17.9356C18.6835 18.2449 18.4659 18.3911 18.0955 18.5168C17.8269 18.612 17.0214 18.612 16.6679 18.5168ZM17.606 17.1199C17.8881 16.9941 18.1158 16.7154 18.1668 16.4367C18.2178 16.175 18.0173 15.8147 17.7114 15.6244C17.589 15.5462 17.5176 15.5258 17.3681 15.5258C17.0078 15.5258 16.7665 15.655 16.583 15.9405C16.3145 16.3552 16.4776 16.8446 16.967 17.0859C17.2118 17.2117 17.3885 17.2185 17.606 17.1199ZM24.2168 12.6334C24.4921 12.4907 24.6926 12.2256 24.73 11.9503C24.7674 11.6682 24.5227 11.2739 24.227 11.1311C24.0876 11.0666 23.8361 11.0564 23.6492 11.1073C23.3807 11.1821 23.1291 11.454 23.0442 11.7565C22.9864 11.9673 23.0816 12.2086 23.3127 12.4363C23.622 12.7388 23.8939 12.7966 24.2168 12.6334Z" fill="white"/>
<path d="M0.119026 12.9936C0.173407 12.545 0.275373 11.8516 0.292367 11.8074C0.305962 11.7701 0.377338 11.7531 0.52009 11.7429L0.730818 11.7327L0.52009 11.7259C0.40113 11.7225 0.305962 11.7055 0.305962 11.6885C0.305962 11.6341 0.771604 11.6171 2.28749 11.6171H3.80677L4.93859 10.5567C6.00923 9.54722 7.96356 7.73903 8.22867 7.51131C8.29665 7.45353 8.39182 7.38895 8.4428 7.36856C8.50398 7.34476 9.89411 7.33457 12.637 7.33457C14.8938 7.33457 16.7564 7.32097 16.7768 7.30738C16.7972 7.29378 16.8583 7.19861 16.9127 7.09665C17.1336 6.68539 17.5857 6.31831 18.0547 6.17556C18.2553 6.11438 18.3538 6.10758 18.8569 6.11778L19.4313 6.12798L19.7168 6.27073C20.0601 6.44067 20.2708 6.61741 20.4849 6.91651C20.7194 7.2462 20.8078 7.51471 20.8282 7.96335C20.8554 8.61593 20.7126 9.0102 20.2878 9.45545C20.0838 9.67297 19.9853 9.74435 19.7202 9.8769L19.3973 10.0366H18.8331C18.2145 10.0366 18.0921 10.0129 17.6911 9.80213C17.4429 9.67297 17.0419 9.2855 16.9059 9.04079L16.8074 8.86405L12.9463 8.87085L9.08518 8.88104L8.83367 9.11896C8.69092 9.25152 8.25246 9.66278 7.8514 10.0366C7.45373 10.4105 6.59043 11.2194 5.93445 11.8346C5.27847 12.4464 4.68028 12.9936 4.6021 13.048L4.45935 13.1432L2.28069 13.1534L0.0986328 13.1636L0.119026 12.9936ZM19.0506 8.73489C19.3089 8.60234 19.4755 8.4018 19.5264 8.15709C19.5808 7.89878 19.3293 7.50111 19.037 7.37875C18.9044 7.32097 18.6019 7.34476 18.4524 7.41954C18.313 7.49431 18.0887 7.75942 18.0445 7.90557C17.9426 8.24546 18.1975 8.62953 18.6223 8.78247C18.7549 8.83346 18.8909 8.81646 19.0506 8.73489Z" fill="white"/>
<path d="M9.55431 33.3187C8.31034 31.7076 7.50141 29.8824 7.2397 28.0845C7.20231 27.8227 7.17172 27.4693 7.17172 27.2959V26.9832L6.75706 26.7385C4.32009 25.3008 2.60367 23.4994 1.46166 21.1848C0.975628 20.1991 0.533778 19.0163 0.622148 18.928C0.649339 18.9008 1.50925 18.8906 3.55535 18.8906H6.45457L7.73933 19.6791C8.44629 20.1108 9.17025 20.5526 9.35038 20.6614L9.67667 20.8619L9.69707 21.1406C9.77184 22.1943 10.6182 22.9692 11.75 23.027C12.0593 23.044 12.1272 23.0372 12.3788 22.959C12.756 22.84 13.0313 22.6565 13.2896 22.354C13.6635 21.9223 13.8199 21.4771 13.7893 20.9503C13.7655 20.556 13.6703 20.2807 13.446 19.9714C13.0415 19.4038 12.4399 19.0945 11.75 19.0945C11.2537 19.0945 10.8289 19.2441 10.4278 19.5567L10.2341 19.7097L9.56111 19.295C9.19064 19.0673 8.57545 18.69 8.19138 18.4555C7.80731 18.221 7.31787 17.9219 7.10375 17.7893L6.71288 17.548L3.48058 17.5378L0.248275 17.531L0.210888 17.3169C0.142911 16.9362 0.0613383 16.2361 0.0817314 16.1885C0.0987256 16.1443 0.581362 16.1375 3.72189 16.1375H7.34167L7.58978 16.2599C7.72234 16.3278 7.98745 16.4774 8.17098 16.5896C8.35792 16.7017 8.60264 16.8343 8.7148 16.8887L8.92213 16.9872H12.0389H15.159L15.2746 17.2183C15.5737 17.8131 16.1209 18.2482 16.7837 18.4181C17.1405 18.5099 17.7251 18.5065 17.9936 18.4147C18.3641 18.289 18.5816 18.1428 18.8807 17.8335C19.3124 17.3781 19.5095 16.9192 19.5095 16.372C19.5095 15.7161 19.1968 15.0771 18.6836 14.6896C17.9665 14.1492 17.1201 14.054 16.3316 14.4313C15.8626 14.6556 15.4513 15.0669 15.261 15.5019C15.2236 15.5869 15.1692 15.6651 15.1386 15.6753C15.0435 15.7127 9.41156 15.6957 9.24502 15.6583C9.04789 15.6141 8.4293 15.2436 8.23556 15.0601C7.98065 14.812 7.94666 14.8663 9.16685 13.6666L10.2477 12.6061L16.0325 12.6027H21.8174L21.9261 12.8168C22.0893 13.1261 22.5481 13.5714 22.8744 13.7345C23.3638 13.9792 23.9926 14.0642 24.4379 13.9453C25.0123 13.7923 25.5697 13.3369 25.828 12.8032C25.9028 12.6469 25.9809 12.4498 25.9979 12.3648C26.0489 12.1405 26.0421 11.6238 25.9843 11.4029C25.8722 10.9679 25.5629 10.5056 25.2128 10.2371C24.7675 9.90063 24.3019 9.76128 23.7581 9.79866C22.9356 9.85984 22.2864 10.2745 21.9227 10.9781L21.7834 11.2432H15.8116C9.97577 11.2432 9.83642 11.2466 9.73105 11.3078C9.67327 11.3451 8.83376 12.1303 7.86509 13.0514L6.10788 14.727L3.07951 14.7474C1.41408 14.761 0.0375464 14.7576 0.023951 14.744C-0.00663858 14.7168 0.0511418 13.534 0.0953268 13.2315L0.119119 13.0616L2.2366 13.0514L4.35748 13.0446L4.49683 12.946C4.57501 12.8916 5.1766 12.3444 5.83258 11.7326C6.48856 11.1174 7.35186 10.3085 7.74953 9.93462C8.15059 9.56074 8.58904 9.14948 8.73179 9.01693L8.98331 8.77901L12.9464 8.76881L16.9094 8.76202L17.008 8.93876C17.1439 9.18347 17.545 9.57094 17.7931 9.7001C18.1772 9.90063 18.3267 9.93462 18.8332 9.93462H19.2954L19.6183 9.77487C20.1519 9.50976 20.5462 9.03392 20.6889 8.47991C20.8079 8.01427 20.6889 7.44666 20.383 7.01841C20.1689 6.71931 19.9582 6.54257 19.6149 6.37263L19.3294 6.22988L18.857 6.21968C18.4559 6.20948 18.3539 6.21628 18.1568 6.27746C17.6878 6.42021 17.2357 6.78389 17.0148 7.19855C16.9604 7.30051 16.8992 7.39568 16.8788 7.40928C16.8584 7.42287 14.9959 7.43647 12.739 7.43647C9.99616 7.43647 8.60604 7.44666 8.54486 7.47045C8.49387 7.49085 8.39871 7.55543 8.33073 7.61321C8.06562 7.84093 6.11128 9.64911 5.04065 10.6586L3.90883 11.719H2.10744H0.306055L0.319651 11.6442C1.00962 8.39834 2.5255 5.68946 4.69057 3.83029C7.12754 1.74 10.1695 0.547006 14.1394 0.125549C15.3935 -0.00700615 18.3607 -0.0443934 19.4925 0.0609708C22.385 0.322682 24.6316 0.883491 26.5621 1.82837C27.9965 2.52853 29.1283 3.32726 30.1853 4.3775C31.2933 5.47873 32.0513 6.54597 32.765 7.99728C33.574 9.64572 34.0396 11.2432 34.2911 13.2485C34.4101 14.1798 34.4407 14.8222 34.4203 15.9438C34.3897 17.7316 34.179 19.0843 33.6963 20.539C32.918 22.8978 31.4055 25.0493 29.5157 26.4904C28.4485 27.3061 27.3609 27.9315 26.2732 28.3564C24.7132 28.9682 22.8846 29.3624 20.8521 29.529C20.0771 29.5935 18.2044 29.6105 17.0386 29.563C16.2806 29.5358 15.9136 29.5324 15.832 29.5562C15.7708 29.5765 15.6586 29.6071 15.5839 29.6241C14.6526 29.8519 13.9082 30.1849 13.0177 30.7695C11.9641 31.4629 11.2062 32.1461 10.1661 33.3357C10.0098 33.5124 9.87041 33.662 9.85681 33.6688C9.84322 33.6756 9.70726 33.5158 9.55431 33.3187ZM19.5537 28.0233C19.6761 27.9689 19.9038 27.7344 19.9514 27.6052C19.9718 27.5542 19.9854 26.538 19.9854 25.0493C19.9854 22.6395 19.982 22.5749 19.914 22.4254C19.829 22.2384 19.6727 22.0685 19.4993 21.9801C19.377 21.9155 19.3056 21.9121 18.2384 21.9223L17.1066 21.9325L16.94 22.0345C16.7599 22.1467 16.5763 22.388 16.5185 22.5885C16.4982 22.6701 16.4846 23.5878 16.4846 25.1207C16.4846 27.092 16.4914 27.5474 16.5321 27.6392C16.5865 27.7718 16.8041 27.9621 16.9638 28.0199C17.1371 28.0845 19.4042 28.0845 19.5537 28.0233ZM23.0613 27.629C23.6119 27.5134 24.0912 27.3843 24.3087 27.2891C24.5024 27.2076 24.7302 26.9458 24.7947 26.7283C24.8389 26.5822 24.8457 26.0282 24.8457 22.8162C24.8457 18.6663 24.8559 18.8634 24.6214 18.5915C24.3835 18.3128 24.3869 18.3128 23.1021 18.3128H21.9635L21.7834 18.4079C21.5828 18.5099 21.4061 18.7308 21.3449 18.9518C21.3245 19.0333 21.3109 20.5152 21.3109 23.2513C21.3109 27.8397 21.3007 27.5916 21.5115 27.714C21.6576 27.799 22.4733 27.7548 23.0613 27.629ZM26.8952 26.1777C27.3915 25.9058 27.7245 25.6543 28.1664 25.2328C29.0433 24.3933 29.6211 23.53 29.808 22.7789C29.876 22.5137 29.876 22.422 29.8692 19.329L29.859 16.1545L29.7842 16.0152C29.6891 15.835 29.4715 15.6413 29.3084 15.5937C29.22 15.5665 28.8156 15.5597 28.0406 15.5665C26.9496 15.5767 26.8952 15.5801 26.7661 15.6515C26.5927 15.7432 26.4976 15.8452 26.4126 16.0355C26.3446 16.1885 26.3412 16.2293 26.3412 21.212C26.3412 24.6108 26.3514 26.2593 26.3752 26.3035C26.4296 26.4054 26.5247 26.3816 26.8952 26.1777Z" fill="#FF5F38"/>
<path d="M11.4849 21.9054C11.0906 21.7558 10.8425 21.4261 10.8425 21.0523C10.8425 20.7464 10.9853 20.4881 11.2504 20.3181C11.3931 20.2264 11.4577 20.2094 11.716 20.1924C12.0559 20.172 12.1885 20.2162 12.3992 20.4235C12.9464 20.9605 12.5895 21.8884 11.818 21.936C11.6922 21.9462 11.5597 21.9326 11.4849 21.9054Z" fill="#FF5F38"/>
<path d="M17.1405 17.293C16.6579 17.1945 16.3418 16.824 16.335 16.3482C16.335 16.083 16.4233 15.8587 16.6103 15.6752C16.8006 15.4848 16.906 15.4441 17.29 15.4305C17.6163 15.4169 17.6469 15.4203 17.7897 15.5052C17.9902 15.6242 18.1703 15.8383 18.2383 16.0457C18.3097 16.2598 18.2893 16.5793 18.1907 16.7662C17.997 17.1435 17.5382 17.3712 17.1405 17.293Z" fill="#FF5F38"/>
<path d="M23.5575 12.7829C23.4692 12.7523 23.3264 12.6503 23.2108 12.5382C23.0511 12.3818 23.0069 12.3105 22.9593 12.1473C22.8506 11.7768 22.9797 11.3758 23.2754 11.1515C23.459 11.0121 23.6085 10.9713 23.9382 10.9713C24.3529 10.9713 24.5976 11.1277 24.7709 11.5083C24.8423 11.6681 24.8525 11.7293 24.8389 11.94C24.8151 12.3071 24.6418 12.5688 24.3087 12.7387C24.1149 12.8407 23.7649 12.8611 23.5575 12.7829Z" fill="#FF5F38"/>
<path d="M18.5205 8.88446C18.1296 8.7451 17.9087 8.446 17.9087 8.06193C17.9087 7.84101 17.9835 7.65747 18.1432 7.49433C18.32 7.31079 18.4185 7.2666 18.721 7.24281C19.0541 7.21902 19.1799 7.25641 19.3804 7.45014C19.7577 7.81042 19.7203 8.4562 19.309 8.7417C19.0473 8.92524 18.772 8.97622 18.5205 8.88446Z" fill="#FF5F38"/>
</svg>
